<svg width="3300" height="2200" viewBox="0 0 3300 2200" fill="none" xmlns="http://www.w3.org/2000/svg">
<g id="claude" clip-path="url(#clip0_1001_2)">
<g id="Notes">
<path id="artboard" d="M3300 0H0V2200H3300V0Z" fill="white"/>
<path id="Vector" d="M263 292H3036" stroke="black" stroke-width="0.5"/>
<text id="Weight/Scale Variations" fill="black" style="white-space: pre" xml:space="preserve" font-family="Inter" font-size="13" font-weight="bold" letter-spacing="0em"><tspan x="263" y="321.727">Weight/Scale Variations</tspan></text>
<text id="Ultralight" fill="black" style="white-space: pre" xml:space="preserve" font-family="Inter" font-size="13" letter-spacing="0em"><tspan x="531.661" y="321.727">Ultralight</tspan></text>
<text id="Thin" fill="black" style="white-space: pre" xml:space="preserve" font-family="Inter" font-size="13" letter-spacing="0em"><tspan x="843.067" y="321.727">Thin</tspan></text>
<text id="Light" fill="black" style="white-space: pre" xml:space="preserve" font-family="Inter" font-size="13" letter-spacing="0em"><tspan x="1137.77" y="321.727">Light</tspan></text>
<text id="Regular" fill="black" style="white-space: pre" xml:space="preserve" font-family="Inter" font-size="13" letter-spacing="0em"><tspan x="1426.58" y="321.727">Regular</tspan></text>
<text id="Medium" fill="black" style="white-space: pre" xml:space="preserve" font-family="Inter" font-size="13" letter-spacing="0em"><tspan x="1721.99" y="321.727">Medium</tspan></text>
<text id="Semibold" fill="black" style="white-space: pre" xml:space="preserve" font-family="Inter" font-size="13" letter-spacing="0em"><tspan x="2014.65" y="321.727">Semibold</tspan></text>
<text id="Bold" fill="black" style="white-space: pre" xml:space="preserve" font-family="Inter" font-size="13" letter-spacing="0em"><tspan x="2326.29" y="321.727">Bold</tspan></text>
<text id="Heavy" fill="black" style="white-space: pre" xml:space="preserve" font-family="Inter" font-size="13" letter-spacing="0em"><tspan x="2617.32" y="321.727">Heavy</tspan></text>
<text id="Black" fill="black" style="white-space: pre" xml:space="preserve" font-family="Inter" font-size="13" letter-spacing="0em"><tspan x="2916.8" y="321.727">Black</tspan></text>
<path id="Vector_2" d="M263 1903H3036" stroke="black" stroke-width="0.5"/>
<g id="Group">
<path id="Vector_3" d="M272.248 1933.83C276.604 1933.83 280.139 1930.3 280.139 1925.95C280.139 1921.59 276.604 1918.07 272.248 1918.07C267.902 1918.07 264.367 1921.59 264.367 1925.95C264.367 1930.3 267.902 1933.83 272.248 1933.83ZM272.248 1932.35C268.713 1932.35 265.861 1929.48 265.861 1925.95C265.861 1922.41 268.713 1919.55 272.248 1919.55C275.783 1919.55 278.645 1922.41 278.645 1925.95C278.645 1929.48 275.783 1932.35 272.248 1932.35ZM272.971 1928.79V1923.1C272.971 1922.65 272.678 1922.35 272.229 1922.35C271.799 1922.35 271.506 1922.65 271.506 1923.1V1928.79C271.506 1929.23 271.799 1929.53 272.229 1929.53C272.678 1929.53 272.971 1929.23 272.971 1928.79ZM269.406 1926.67H275.09C275.529 1926.67 275.832 1926.38 275.832 1925.95C275.832 1925.51 275.529 1925.21 275.09 1925.21H269.406C268.957 1925.21 268.654 1925.51 268.654 1925.95C268.654 1926.38 268.957 1926.67 269.406 1926.67Z" fill="black"/>
</g>
<g id="Group_2">
<path id="Vector_4" d="M293.215 1935.91C298.713 1935.91 303.176 1931.45 303.176 1925.95C303.176 1920.45 298.713 1915.99 293.215 1915.99C287.717 1915.99 283.254 1920.45 283.254 1925.95C283.254 1931.45 287.717 1935.91 293.215 1935.91ZM293.215 1934.25C288.625 1934.25 284.914 1930.54 284.914 1925.95C284.914 1921.36 288.625 1917.65 293.215 1917.65C297.805 1917.65 301.516 1921.36 301.516 1925.95C301.516 1930.54 297.805 1934.25 293.215 1934.25ZM294.026 1929.63V1922.25C294.026 1921.75 293.684 1921.41 293.195 1921.41C292.717 1921.41 292.385 1921.75 292.385 1922.25V1929.63C292.385 1930.12 292.717 1930.46 293.195 1930.46C293.684 1930.46 294.026 1930.13 294.026 1929.63ZM289.514 1926.75H296.906C297.395 1926.75 297.736 1926.43 297.736 1925.95C297.736 1925.46 297.395 1925.12 296.906 1925.12H289.514C289.016 1925.12 288.684 1925.46 288.684 1925.95C288.684 1926.43 289.016 1926.75 289.514 1926.75Z" fill="black"/>
</g>
<g id="Group_3">
<path id="Vector_5" d="M319.895 1938.66C326.916 1938.66 332.619 1932.97 332.619 1925.95C332.619 1918.93 326.916 1913.22 319.895 1913.22C312.873 1913.22 307.18 1918.93 307.18 1925.95C307.18 1932.97 312.873 1938.66 319.895 1938.66ZM319.895 1936.85C313.869 1936.85 308.996 1931.97 308.996 1925.95C308.996 1919.92 313.869 1915.05 319.895 1915.05C325.92 1915.05 330.793 1919.92 330.793 1925.95C330.793 1931.97 325.92 1936.85 319.895 1936.85ZM320.783 1930.78V1921.09C320.783 1920.54 320.412 1920.16 319.875 1920.16C319.358 1920.16 318.987 1920.54 318.987 1921.09V1930.78C318.987 1931.32 319.358 1931.7 319.875 1931.7C320.412 1931.7 320.783 1931.33 320.783 1930.78ZM315.041 1926.83H324.739C325.276 1926.83 325.656 1926.47 325.656 1925.95C325.656 1925.4 325.285 1925.03 324.739 1925.03H315.041C314.494 1925.03 314.123 1925.4 314.123 1925.95C314.123 1926.47 314.494 1926.83 315.041 1926.83Z" fill="black"/>
</g>
<text id="Design Variations" fill="black" style="white-space: pre" xml:space="preserve" font-family="Inter" font-size="13" font-weight="bold" letter-spacing="0em"><tspan x="263" y="1952.73">Design Variations</tspan></text>
<text id="Symbols are supported in up to nine weights and three scales." fill="black" style="white-space: pre" xml:space="preserve" font-family="Inter" font-size="13" letter-spacing="0em"><tspan x="263" y="1970.73">Symbols are supported in up to nine weights and three scales.</tspan></text>
<text id="For optimal layout with text and other symbols, vertically align" fill="black" style="white-space: pre" xml:space="preserve" font-family="Inter" font-size="13" letter-spacing="0em"><tspan x="263" y="1988.73">For optimal layout with text and other symbols, vertically align</tspan></text>
<text id="symbols with the adjacent text." fill="black" style="white-space: pre" xml:space="preserve" font-family="Inter" font-size="13" letter-spacing="0em"><tspan x="263" y="2006.73">symbols with the adjacent text.</tspan></text>
<path id="Vector_6" d="M776 1919V1933" stroke="#00AEEF" stroke-width="0.5"/>
<g id="Group_4">
<path id="Vector_7" d="M779.311 1933.16C779.828 1933.16 780.082 1932.96 780.268 1932.41L784.379 1920.91H784.428L788.549 1932.41C788.734 1932.96 788.988 1933.16 789.496 1933.16C790.014 1933.16 790.346 1932.84 790.346 1932.36C790.346 1932.19 790.316 1932.03 790.238 1931.83L785.658 1919.63C785.434 1919.04 785.033 1918.73 784.408 1918.73C783.803 1918.73 783.393 1919.03 783.178 1919.62L778.598 1931.84C778.52 1932.04 778.49 1932.2 778.49 1932.37C778.49 1932.85 778.803 1933.16 779.311 1933.16ZM781.352 1928.97H787.484C787.885 1928.97 788.217 1928.63 788.217 1928.23C788.217 1927.82 787.885 1927.5 787.484 1927.5H781.352C780.951 1927.5 780.619 1927.82 780.619 1928.23C780.619 1928.63 780.951 1928.97 781.352 1928.97Z" fill="black"/>
</g>
<path id="Vector_8" d="M792.836 1919V1933" stroke="#00AEEF" stroke-width="0.5"/>
<text id="Margins" fill="black" style="white-space: pre" xml:space="preserve" font-family="Inter" font-size="13" font-weight="bold" letter-spacing="0em"><tspan x="776" y="1952.73">Margins</tspan></text>
<text id="Leading and trailing margins on the left and right side of each symbol" fill="black" style="white-space: pre" xml:space="preserve" font-family="Inter" font-size="13" letter-spacing="0em"><tspan x="776" y="1970.73">Leading and trailing margins on the left and right side of each symbol</tspan></text>
<text id="can be adjusted by modifying the x-location of the margin guidelines." fill="black" style="white-space: pre" xml:space="preserve" font-family="Inter" font-size="13" letter-spacing="0em"><tspan x="776" y="1988.73">can be adjusted by modifying the x-location of the margin guidelines.</tspan></text>
<text id="Modifications are automatically applied proportionally to all" fill="black" style="white-space: pre" xml:space="preserve" font-family="Inter" font-size="13" letter-spacing="0em"><tspan x="776" y="2006.73">Modifications are automatically applied proportionally to all</tspan></text>
<text id="scales and weights." fill="black" style="white-space: pre" xml:space="preserve" font-family="Inter" font-size="13" letter-spacing="0em"><tspan x="776" y="2024.73">scales and weights.</tspan></text>
<g id="Group_5">
<path id="Vector_9" d="M1291.84 1935.63L1293.41 1937.2C1294.27 1938.08 1295.28 1938.02 1296.19 1936.99L1308.33 1923.35L1307.35 1922.38L1295.3 1935.91C1294.94 1936.3 1294.61 1936.4 1294.14 1935.93L1293.1 1934.9C1292.64 1934.45 1292.74 1934.11 1293.14 1933.74L1306.64 1921.31L1305.66 1920.34L1292.05 1932.86C1291.05 1933.78 1290.98 1934.76 1291.84 1935.63ZM1300.82 1916.13C1300.41 1916.54 1300.37 1917.11 1300.6 1917.49C1300.83 1917.85 1301.29 1918.1 1301.92 1917.94C1303.09 1917.61 1304.44 1917.46 1305.7 1918.13L1305.16 1919.55C1304.84 1920.35 1305.02 1920.93 1305.5 1921.44L1307.55 1923.5C1308.02 1923.98 1308.46 1923.99 1308.97 1923.89L1309.86 1923.74L1310.38 1924.25L1310.34 1924.7C1310.32 1925.16 1310.45 1925.56 1310.89 1926L1311.57 1926.66C1312.03 1927.12 1312.67 1927.16 1313.13 1926.7L1315.73 1924.09C1316.19 1923.63 1316.16 1923.02 1315.69 1922.56L1315.01 1921.88C1314.57 1921.44 1314.2 1921.27 1313.74 1921.3L1313.27 1921.35L1312.78 1920.86L1312.98 1919.92C1313.11 1919.38 1312.94 1918.93 1312.41 1918.4L1310.15 1916.16C1307.56 1913.6 1303.03 1913.96 1300.82 1916.13ZM1302.23 1916.54C1303.99 1915.27 1307.43 1915.41 1308.97 1916.94L1311.43 1919.38C1311.64 1919.58 1311.68 1919.74 1311.62 1920.04L1311.32 1921.37L1312.67 1922.71L1313.55 1922.66C1313.78 1922.65 1313.85 1922.67 1314.02 1922.83L1314.53 1923.33L1312.36 1925.5L1311.86 1925C1311.7 1924.83 1311.67 1924.76 1311.68 1924.52L1311.73 1923.65L1310.4 1922.31L1309.03 1922.54C1308.75 1922.6 1308.62 1922.58 1308.39 1922.37L1306.61 1920.59C1306.39 1920.38 1306.37 1920.25 1306.51 1919.91L1307.43 1917.62C1306.21 1916.35 1304.02 1916.12 1302.31 1916.7C1302.17 1916.75 1302.12 1916.62 1302.23 1916.54Z" fill="black"/>
</g>
<text id="Exporting" fill="black" style="white-space: pre" xml:space="preserve" font-family="Inter" font-size="13" font-weight="bold" letter-spacing="0em"><tspan x="1289" y="1952.73">Exporting</tspan></text>
<text id="Symbols should be outlined when exporting to ensure the" fill="black" style="white-space: pre" xml:space="preserve" font-family="Inter" font-size="13" letter-spacing="0em"><tspan x="1289" y="1970.73">Symbols should be outlined when exporting to ensure the</tspan></text>
<text id="design is preserved when submitting to Xcode." fill="black" style="white-space: pre" xml:space="preserve" font-family="Inter" font-size="13" letter-spacing="0em"><tspan x="1289" y="1988.73">design is preserved when submitting to Xcode.</tspan></text>
<text id="template-version" fill="black" style="white-space: pre" xml:space="preserve" font-family="Inter" font-size="13" letter-spacing="0em"><tspan x="2948.26" y="1932.73">Template v.7.0</tspan></text>
<text id="Requires Xcode 26 or greater" fill="black" style="white-space: pre" xml:space="preserve" font-family="Inter" font-size="13" letter-spacing="0em"><tspan x="2856.34" y="1950.73">Requires Xcode 26 or greater</tspan></text>
<text id="descriptive-name" fill="black" style="white-space: pre" xml:space="preserve" font-family="Inter" font-size="13" letter-spacing="0em"><tspan x="2679.11" y="1968.73">Generated from custom.square.and.arrow.down.on.square</tspan></text>
<text id="Typeset at 100.0 points" fill="black" style="white-space: pre" xml:space="preserve" font-family="Inter" font-size="13" letter-spacing="0em"><tspan x="2892.56" y="1986.73">Typeset at 100.0 points</tspan></text>
<text id="Small" fill="black" style="white-space: pre" xml:space="preserve" font-family="Inter" font-size="13" letter-spacing="0em"><tspan x="263" y="725.727">Small</tspan></text>
<text id="Medium_2" fill="black" style="white-space: pre" xml:space="preserve" font-family="Inter" font-size="13" letter-spacing="0em"><tspan x="263" y="1155.73">Medium</tspan></text>
<text id="Large" fill="black" style="white-space: pre" xml:space="preserve" font-family="Inter" font-size="13" letter-spacing="0em"><tspan x="263" y="1585.73">Large</tspan></text>
<g id="codex 1" clip-path="url(#clip1_1001_2)">
<path id="Vector_10" fill-rule="evenodd" clip-rule="evenodd" d="M475.043 2094.23C475.525 2094.03 476.049 2093.96 476.566 2094.02C477.232 2094.1 477.826 2094.38 478.348 2094.87C478.355 2094.88 478.364 2094.88 478.373 2094.89C478.382 2094.89 478.392 2094.89 478.401 2094.89C479.105 2094.71 479.782 2094.77 480.432 2095.07L480.463 2095.08L480.54 2095.12C481.219 2095.47 481.705 2096.01 481.999 2096.72C482.138 2097.06 482.208 2097.41 482.21 2097.78C482.22 2098.06 482.189 2098.33 482.12 2098.6C482.117 2098.61 482.117 2098.63 482.12 2098.64C482.124 2098.65 482.13 2098.67 482.14 2098.68C482.533 2099.08 482.806 2099.58 482.929 2100.12C483.121 2101.07 482.924 2101.93 482.337 2102.69L482.246 2102.8C481.858 2103.25 481.348 2103.57 480.779 2103.73C480.767 2103.73 480.756 2103.74 480.746 2103.75C480.737 2103.76 480.73 2103.77 480.725 2103.78C480.598 2104.15 480.47 2104.46 480.232 2104.77C479.632 2105.57 478.751 2106.01 477.758 2106C476.966 2106 476.265 2105.71 475.653 2105.13C475.644 2105.12 475.632 2105.12 475.62 2105.11C475.608 2105.11 475.595 2105.11 475.583 2105.12C475.324 2105.2 475.063 2105.21 474.781 2105.21C474.33 2105.2 473.887 2105.1 473.483 2104.9C473.061 2104.69 472.694 2104.38 472.41 2104.01C472.309 2103.87 472.208 2103.75 472.135 2103.6C472.034 2103.39 471.951 2103.18 471.887 2102.96C471.755 2102.45 471.752 2101.93 471.879 2101.42C471.883 2101.41 471.884 2101.4 471.883 2101.39C471.881 2101.37 471.874 2101.36 471.864 2101.35C471.556 2101.04 471.321 2100.67 471.174 2100.25C471.078 2100 471.022 2099.73 471.008 2099.46C470.984 2099.1 471.016 2098.74 471.102 2098.39C471.327 2097.65 471.756 2097.07 472.39 2096.65C472.531 2096.55 472.665 2096.48 472.791 2096.43C472.934 2096.37 473.078 2096.32 473.222 2096.28C473.232 2096.27 473.242 2096.27 473.249 2096.26C473.257 2096.25 473.262 2096.24 473.265 2096.23C473.375 2095.84 473.562 2095.47 473.817 2095.16C474.157 2094.73 474.566 2094.42 475.043 2094.23ZM474.641 2098.15C474.585 2098.06 474.493 2097.98 474.384 2097.95C474.276 2097.93 474.16 2097.94 474.062 2098C473.965 2098.05 473.893 2098.14 473.863 2098.25C473.834 2098.36 473.849 2098.48 473.904 2098.57L474.751 2100.06L473.907 2101.48C473.856 2101.58 473.843 2101.69 473.873 2101.8C473.902 2101.9 473.971 2101.99 474.065 2102.05C474.16 2102.1 474.272 2102.12 474.378 2102.09C474.485 2102.07 474.578 2102 474.637 2101.91L475.607 2100.28C475.646 2100.21 475.666 2100.14 475.667 2100.06C475.667 2099.99 475.648 2099.92 475.611 2099.85L474.641 2098.15ZM477.364 2101.27C477.256 2101.28 477.154 2101.33 477.08 2101.41C477.006 2101.48 476.965 2101.59 476.965 2101.7C476.965 2101.81 477.006 2101.91 477.08 2101.99C477.154 2102.07 477.256 2102.11 477.364 2102.12H479.788C479.897 2102.12 480 2102.07 480.075 2101.99C480.15 2101.91 480.192 2101.81 480.192 2101.7C480.192 2101.59 480.15 2101.48 480.075 2101.4C480 2101.33 479.897 2101.28 479.788 2101.27H477.364V2101.27Z" fill="black"/>
</g>
</g>
<g id="Guides">
<g id="H-reference">
<path id="Vector_11" d="M339.994 696H342.638L368.328 628.868H369.03V625.541H367.123L339.994 696ZM350.688 671.52H385.981L385.231 669.272H351.438L350.688 671.52ZM394.12 696H396.764L369.638 625.541H368.433V628.868L394.12 696Z" fill="#27AAE1"/>
</g>
<path id="Baseline-S" d="M263 696H3036" stroke="#27AAE1" stroke-width="0.5"/>
<path id="Capline-S" d="M263 625.541H3036" stroke="#27AAE1" stroke-width="0.5"/>
<g id="H-reference_2">
<path id="Vector_12" d="M339.994 1126H342.638L368.328 1058.87H369.03V1055.54H367.123L339.994 1126ZM350.688 1101.52H385.981L385.231 1099.27H351.438L350.688 1101.52ZM394.12 1126H396.764L369.638 1055.54H368.433V1058.87L394.12 1126Z" fill="#27AAE1"/>
</g>
<path id="Baseline-M" d="M263 1126H3036" stroke="#27AAE1" stroke-width="0.5"/>
<path id="Capline-M" d="M263 1055.54H3036" stroke="#27AAE1" stroke-width="0.5"/>
<g id="H-reference_3">
<path id="Vector_13" d="M339.994 1556H342.638L368.328 1488.87H369.03V1485.54H367.123L339.994 1556ZM350.688 1531.52H385.981L385.231 1529.27H351.438L350.688 1531.52ZM394.12 1556H396.764L369.638 1485.54H368.433V1488.87L394.12 1556Z" fill="#27AAE1"/>
</g>
<path id="Baseline-L" d="M263 1556H3036" stroke="#27AAE1" stroke-width="0.5"/>
<path id="Capline-L" d="M263 1485.54H3036" stroke="#27AAE1" stroke-width="0.5"/>
<path id="right-margin-Black-S" d="M2991.07 600.785V720.121" stroke="#00AEEF" stroke-width="0.5"/>
<path id="left-margin-Black-S" d="M2875.73 600.785V720.121" stroke="#00AEEF" stroke-width="0.5"/>
<path id="right-margin-Regular-S" d="M1502.21 600.785V720.121" stroke="#00AEEF" stroke-width="0.5"/>
<path id="left-margin-Regular-S" d="M1397.48 600.785V720.121" stroke="#00AEEF" stroke-width="0.5"/>
<path id="right-margin-Ultralight-S" d="M608.991 600.785V720.121" stroke="#00AEEF" stroke-width="0.5"/>
<path id="left-margin-Ultralight-S" d="M510.431 600.785V720.121" stroke="#00AEEF" stroke-width="0.5"/>
</g>
<g id="Symbols">
<g id="Black-S">
<path id="Vector_14" fill-rule="evenodd" clip-rule="evenodd" d="M2910.73 672.535L2924.5 664.815L2924.73 664.144L2924.5 663.771H2923.83L2921.53 663.631L2913.66 663.418L2906.84 663.135L2900.23 662.779L2898.56 662.426L2897 660.37L2897.16 659.343L2898.56 658.407L2900.56 658.582L2904.99 658.883L2911.64 659.343L2916.46 659.626L2923.6 660.37H2924.73L2924.9 659.912L2924.5 659.626L2924.2 659.343L2917.33 654.688L2909.88 649.765L2905.99 646.93L2903.87 645.498L2902.81 644.15L2902.35 641.21L2904.27 639.105L2906.84 639.28L2907.49 639.457L2910.1 641.458L2915.66 645.763L2922.93 651.11L2923.99 651.996L2924.41 651.696L2924.47 651.483L2923.99 650.684L2920.04 643.55L2915.82 636.287L2913.94 633.277L2913.45 631.472C2913.26 630.778 2913.16 630.064 2913.14 629.345L2915.33 626.391L2916.53 626L2919.44 626.391L2920.66 627.453L2922.47 631.577L2925.39 638.078L2929.93 646.915L2931.26 649.535L2931.97 651.961L2932.23 652.705H2932.69V652.279L2933.06 647.303L2933.76 641.193L2934.43 633.333L2934.66 631.116L2935.76 628.462L2937.94 627.027L2939.64 627.843L2941.04 629.841L2940.84 631.136L2940.01 636.535L2938.38 645.002L2937.32 650.666H2937.94L2938.64 649.96L2941.52 646.151L2946.34 640.131L2948.46 637.74L2950.94 635.103L2952.54 633.846H2955.55L2957.77 637.139L2956.78 640.54L2953.67 644.468L2951.1 647.799L2947.42 652.758L2945.11 656.724L2945.33 657.045L2945.87 656.987L2954.2 655.219L2958.71 654.403L2964.07 653.484L2966.5 654.615L2966.77 655.768L2965.81 658.121L2960.07 659.539L2953.34 660.886L2943.31 663.258L2943.18 663.345L2943.33 663.523L2947.84 663.949L2949.77 664.054H2954.51L2963.31 664.71L2965.62 666.233L2967 668.093L2966.77 669.508L2963.23 671.316L2958.44 670.182L2947.27 667.528L2943.45 666.568H2942.92V666.889L2946.11 670.004L2951.96 675.283L2959.27 682.079L2959.64 683.765L2958.71 685.092L2957.71 684.949L2951.28 680.116L2948.8 677.937L2943.18 673.212H2942.81V673.708L2944.1 675.601L2950.94 685.87L2951.3 689.02L2950.8 690.05L2949.03 690.671L2947.08 690.315L2943.07 684.701L2938.95 678.38L2935.61 672.713L2935.21 672.947L2933.24 694.104L2932.32 695.183L2930.19 696L2928.42 694.655L2927.48 692.477L2928.42 688.172L2929.56 682.56L2930.47 678.097L2931.31 672.556L2931.8 670.713L2931.77 670.59L2931.36 670.643L2927.18 676.38L2920.82 684.969L2915.79 690.35L2914.58 690.829L2912.49 689.75L2912.68 687.819L2913.85 686.101L2920.82 677.246L2925.02 671.757L2927.73 668.589L2927.71 668.128H2927.55L2909.05 680.133L2905.76 680.559L2904.34 679.229L2904.51 677.053L2905.19 676.345L2910.75 672.518L2910.73 672.535Z" fill="black"/>
</g>
<g id="Regular-S">
<path id="Vector_15" fill-rule="evenodd" clip-rule="evenodd" d="M1427.73 672.535L1441.5 664.815L1441.73 664.144L1441.5 663.771H1440.83L1438.53 663.631L1430.66 663.418L1423.84 663.135L1417.23 662.779L1415.56 662.426L1414 660.37L1414.16 659.343L1415.56 658.407L1417.56 658.582L1421.99 658.883L1428.64 659.343L1433.46 659.626L1440.6 660.37H1441.73L1441.9 659.912L1441.5 659.626L1441.2 659.343L1434.33 654.688L1426.88 649.765L1422.99 646.93L1420.87 645.498L1419.81 644.15L1419.35 641.21L1421.27 639.105L1423.84 639.28L1424.49 639.457L1427.1 641.458L1432.66 645.763L1439.93 651.11L1440.99 651.996L1441.41 651.696L1441.47 651.483L1440.99 650.684L1437.04 643.55L1432.82 636.287L1430.94 633.277L1430.45 631.472C1430.26 630.778 1430.16 630.064 1430.14 629.345L1432.33 626.391L1433.53 626L1436.44 626.391L1437.66 627.453L1439.47 631.577L1442.39 638.078L1446.93 646.915L1448.26 649.535L1448.97 651.961L1449.23 652.705H1449.69V652.279L1450.06 647.303L1450.76 641.193L1451.43 633.333L1451.66 631.116L1452.76 628.462L1454.94 627.027L1456.64 627.843L1458.04 629.841L1457.84 631.136L1457.01 636.535L1455.38 645.002L1454.32 650.666H1454.94L1455.64 649.96L1458.52 646.151L1463.34 640.131L1465.46 637.74L1467.94 635.103L1469.54 633.846H1472.55L1474.77 637.139L1473.78 640.54L1470.67 644.468L1468.1 647.799L1464.42 652.758L1462.11 656.724L1462.33 657.045L1462.87 656.987L1471.2 655.219L1475.71 654.403L1481.07 653.484L1483.5 654.615L1483.77 655.768L1482.81 658.121L1477.07 659.539L1470.34 660.886L1460.31 663.258L1460.18 663.345L1460.33 663.523L1464.84 663.949L1466.77 664.054H1471.51L1480.31 664.71L1482.62 666.233L1484 668.093L1483.77 669.508L1480.23 671.316L1475.44 670.182L1464.27 667.528L1460.45 666.568H1459.92V666.889L1463.11 670.004L1468.96 675.283L1476.27 682.079L1476.64 683.765L1475.71 685.092L1474.71 684.949L1468.28 680.116L1465.8 677.937L1460.18 673.212H1459.81V673.708L1461.1 675.601L1467.94 685.87L1468.3 689.02L1467.8 690.05L1466.03 690.671L1464.08 690.315L1460.07 684.701L1455.95 678.38L1452.61 672.713L1452.21 672.947L1450.24 694.104L1449.32 695.183L1447.19 696L1445.42 694.655L1444.48 692.477L1445.42 688.172L1446.56 682.56L1447.47 678.097L1448.31 672.556L1448.8 670.713L1448.77 670.59L1448.36 670.643L1444.18 676.38L1437.82 684.969L1432.79 690.35L1431.58 690.829L1429.49 689.75L1429.68 687.819L1430.85 686.101L1437.82 677.246L1442.02 671.757L1444.73 668.589L1444.71 668.128H1444.55L1426.05 680.133L1422.76 680.559L1421.34 679.229L1421.51 677.053L1422.19 676.345L1427.75 672.518L1427.73 672.535Z" fill="black"/>
</g>
<g id="Ultralight-S">
<path id="Vector_16" fill-rule="evenodd" clip-rule="evenodd" d="M537.735 672.535L551.501 664.815L551.735 664.144L551.501 663.771H550.833L548.529 663.631L540.66 663.418L533.838 663.135L527.229 662.779L525.563 662.426L524 660.37L524.16 659.343L525.56 658.407L527.561 658.582L531.995 658.883L538.639 659.343L543.457 659.626L550.6 660.37H551.735L551.895 659.912L551.504 659.626L551.204 659.343L544.326 654.688L536.883 649.765L532.986 646.93L530.875 645.498L529.813 644.15L529.352 641.21L531.265 639.105L533.835 639.28L534.491 639.457L537.096 641.458L542.661 645.763L549.926 651.11L550.991 651.996L551.414 651.696L551.469 651.483L550.991 650.684L547.039 643.55L542.821 636.287L540.943 633.277L540.447 631.472C540.258 630.778 540.156 630.064 540.144 629.345L542.325 626.391L543.53 626L546.435 626.391L547.66 627.453L549.468 631.577L552.391 638.078L556.926 646.915L558.256 649.535L558.965 651.961L559.23 652.705H559.691V652.279L560.065 647.303L560.756 641.193L561.427 633.333L561.66 631.116L562.757 628.462L564.935 627.027L566.639 627.843L568.039 629.841L567.843 631.136L567.009 636.535L565.379 645.002L564.317 650.666H564.935L565.644 649.96L568.517 646.151L573.335 640.131L575.465 637.74L577.944 635.103L579.539 633.846H582.552L584.769 637.139L583.777 640.54L580.674 644.468L578.104 647.799L574.417 652.758L572.113 656.724L572.326 657.045L572.875 656.987L581.205 655.219L585.705 654.403L591.075 653.484L593.504 654.615L593.77 655.768L592.813 658.121L587.07 659.539L580.335 660.886L570.305 663.258L570.183 663.345L570.325 663.523L574.843 663.949L576.774 664.054H581.505L590.313 664.71L592.617 666.233L594 668.093L593.77 669.508L590.226 671.316L585.443 670.182L574.275 667.528L570.448 666.568H569.917V666.889L573.105 670.004L578.956 675.283L586.274 682.079L586.644 683.765L585.705 685.092L584.713 684.949L578.282 680.116L575.8 677.937L570.183 673.212H569.809V673.708L571.104 675.601L577.944 685.87L578.3 689.02L577.804 690.05L576.03 690.671L574.082 690.315L570.075 684.701L565.948 678.38L562.614 672.713L562.205 672.947L560.24 694.104L559.318 695.183L557.192 696L555.421 694.655L554.482 692.477L555.421 688.172L556.556 682.56L557.475 678.097L558.309 672.556L558.805 670.713L558.77 670.59L558.361 670.643L554.179 676.38L547.82 684.969L542.786 690.35L541.579 690.829L539.488 689.75L539.683 687.819L540.853 686.101L547.818 677.246L552.018 671.757L554.73 668.589L554.713 668.128H554.552L536.052 680.133L532.756 680.559L531.335 679.229L531.513 677.053L532.187 676.345L537.752 672.518L537.735 672.535Z" fill="black"/>
</g>
</g>
</g>
<defs>
<clipPath id="clip0_1001_2">
<rect width="3300" height="2200" fill="white"/>
</clipPath>
<clipPath id="clip1_1001_2">
<rect width="12" height="12" fill="white" transform="translate(471 2094)"/>
</clipPath>
</defs>
</svg>
